<svg xmlns="http://www.w3.org/2000/svg" xmlns:xlink="http://www.w3.org/1999/xlink" version="1.1" width="256" height="256" viewBox="0 0 256 256" xml:space="preserve">

<defs>
</defs>
<g style="stroke: none; stroke-width: 0; stroke-dasharray: none; stroke-linecap: butt; stroke-linejoin: miter; stroke-miterlimit: 10; fill: none; fill-rule: nonzero; opacity: 1;" transform="translate(1.4065934065934016 1.4065934065934016) scale(2.81 2.81)" >
	<circle cx="45" cy="45" r="45" style="stroke: none; stroke-width: 1; stroke-dasharray: none; stroke-linecap: butt; stroke-linejoin: miter; stroke-miterlimit: 10; fill: rgb(220,244,219); fill-rule: nonzero; opacity: 1;" transform="  matrix(1 0 0 1 0 0) "/>
	<path d="M 65.209 39.263 c -5.1 0.744 -8.554 -5.05 -5.473 -9.182 c 0.437 -0.586 0.316 -1.416 -0.27 -1.854 l -5.228 -3.897 c -0.586 -0.437 -1.417 -0.316 -1.854 0.27 c -3.08 4.132 -9.619 2.478 -10.362 -2.622 c -0.106 -0.724 -0.778 -1.225 -1.502 -1.12 L 34.066 21.8 c -0.724 0.106 -1.225 0.778 -1.12 1.502 c 0.744 5.1 -5.05 8.554 -9.182 5.473 c -0.586 -0.437 -1.416 -0.316 -1.854 0.27 l -3.897 5.228 c -0.437 0.586 -0.316 1.416 0.27 1.854 c 4.132 3.08 2.478 9.619 -2.623 10.363 c -0.724 0.106 -1.225 0.778 -1.12 1.502 l 0.941 6.452 c 0.106 0.724 0.778 1.225 1.502 1.12 c 5.1 -0.744 8.554 5.05 5.473 9.182 c -0.437 0.586 -0.316 1.417 0.27 1.854 l 5.228 3.897 c 0.586 0.437 1.417 0.316 1.854 -0.27 c 3.081 -4.132 9.619 -2.478 10.363 2.623 c 0.106 0.724 0.778 1.225 1.502 1.12 l 6.452 -0.941 c 0.724 -0.106 1.225 -0.778 1.12 -1.502 c -0.744 -5.1 5.05 -8.554 9.182 -5.473 c 0.586 0.437 1.417 0.316 1.854 -0.27 l 3.897 -5.228 c 0.437 -0.586 0.316 -1.417 -0.27 -1.854 c -4.132 -3.08 -2.478 -9.619 2.623 -10.363 c 0.724 -0.106 1.225 -0.778 1.12 -1.502 l -0.941 -6.452 C 66.605 39.659 65.933 39.158 65.209 39.263 z M 48.009 59.01 c -6.404 3.818 -14.691 1.72 -18.508 -4.684 c -3.818 -6.404 -1.72 -14.691 4.684 -18.508 s 14.691 -1.72 18.508 4.684 S 54.413 55.192 48.009 59.01 z" style="stroke: none; stroke-width: 1; stroke-dasharray: none; stroke-linecap: butt; stroke-linejoin: miter; stroke-miterlimit: 10; fill: rgb(253,188,75); fill-rule: nonzero; opacity: 1;" transform=" matrix(1 0 0 1 0 0) " stroke-linecap="round" />
	<path d="M 76.41 30.305 c -0.665 -1.442 -2.443 -1.999 -3.913 -1.398 l -0.916 0.374 c 1.644 -0.672 2.341 -2.678 1.351 -4.256 c -0.764 -1.218 -2.37 -1.607 -3.701 -1.063 l -4.444 1.817 l -5.391 2.21 c -3.117 -10.682 -6.219 -12.331 -9.954 -9.684 c 2.096 5.917 1.656 15.331 -1.996 17.077 l -10.959 4.48 l 4.93 12.058 l 1.766 4.321 l 11.397 -4.659 c 0.836 -0.342 1.763 -0.356 2.621 -0.075 c 2.181 0.713 4.53 0.62 6.631 -0.239 l 6.98 -2.854 l 0.038 -0.015 l 5.686 -2.324 c 1.486 -0.607 2.198 -2.304 1.59 -3.79 v 0 c -0.594 -1.453 -2.229 -2.157 -3.69 -1.62 l 1.369 -0.56 c 1.459 -0.597 2.336 -2.22 1.819 -3.71 c -0.539 -1.554 -2.236 -2.326 -3.747 -1.771 l 0.995 -0.407 C 76.398 33.592 77.108 31.818 76.41 30.305 z" style="stroke: none; stroke-width: 1; stroke-dasharray: none; stroke-linecap: butt; stroke-linejoin: miter; stroke-miterlimit: 10; fill: rgb(247,176,129); fill-rule: nonzero; opacity: 1;" transform=" matrix(1 0 0 1 0 0) " stroke-linecap="round" />
	<path d="M 74.872 34.216 c -0.319 0.581 -0.718 0.968 -1.134 1.31 c -0.421 0.331 -0.873 0.589 -1.349 0.785 c -0.476 0.196 -0.979 0.328 -1.512 0.387 c -0.537 0.048 -1.093 0.05 -1.728 -0.143 c 0.318 -0.583 0.716 -0.971 1.133 -1.313 c 0.422 -0.331 0.873 -0.589 1.35 -0.783 c 0.477 -0.194 0.98 -0.326 1.513 -0.385 C 73.682 34.028 74.237 34.025 74.872 34.216 z" style="stroke: none; stroke-width: 1; stroke-dasharray: none; stroke-linecap: butt; stroke-linejoin: miter; stroke-miterlimit: 10; fill: rgb(219,158,117); fill-rule: nonzero; opacity: 1;" transform=" matrix(1 0 0 1 0 0) " stroke-linecap="round" />
	<path d="M 66.949 31.175 c 0.319 -0.581 0.718 -0.968 1.134 -1.31 c 0.421 -0.331 0.873 -0.589 1.349 -0.785 c 0.476 -0.196 0.979 -0.328 1.512 -0.387 c 0.537 -0.048 1.093 -0.05 1.728 0.143 c -0.318 0.583 -0.716 0.971 -1.133 1.313 c -0.422 0.331 -0.873 0.589 -1.35 0.783 c -0.477 0.194 -0.98 0.326 -1.513 0.385 C 68.139 31.363 67.583 31.366 66.949 31.175 z" style="stroke: none; stroke-width: 1; stroke-dasharray: none; stroke-linecap: butt; stroke-linejoin: miter; stroke-miterlimit: 10; fill: rgb(219,158,117); fill-rule: nonzero; opacity: 1;" transform=" matrix(1 0 0 1 0 0) " stroke-linecap="round" />
	<path d="M 75.977 40.033 c -0.319 0.581 -0.718 0.968 -1.134 1.31 c -0.421 0.331 -0.873 0.589 -1.349 0.785 c -0.476 0.196 -0.979 0.328 -1.512 0.387 c -0.537 0.048 -1.093 0.05 -1.728 -0.143 c 0.318 -0.583 0.716 -0.971 1.133 -1.313 c 0.422 -0.331 0.873 -0.589 1.35 -0.783 c 0.477 -0.194 0.98 -0.326 1.513 -0.385 C 74.787 39.845 75.342 39.842 75.977 40.033 z" style="stroke: none; stroke-width: 1; stroke-dasharray: none; stroke-linecap: butt; stroke-linejoin: miter; stroke-miterlimit: 10; fill: rgb(219,158,117); fill-rule: nonzero; opacity: 1;" transform=" matrix(1 0 0 1 0 0) " stroke-linecap="round" />
</g>
</svg>