<svg xmlns="http://www.w3.org/2000/svg" xmlns:xlink="http://www.w3.org/1999/xlink" width="200" zoomAndPan="magnify" viewBox="0 0 150 60" height="80" preserveAspectRatio="xMidYMid meet" version="1.0"><defs><g/><clipPath id="4dbb856cfc"><path d="M 65.113281 26 L 82 26 L 82 48 L 65.113281 48 Z M 65.113281 26 " clip-rule="nonzero"/></clipPath><clipPath id="f04b67f92d"><path d="M 132 26 L 143.863281 26 L 143.863281 48 L 132 48 Z M 132 26 " clip-rule="nonzero"/></clipPath><clipPath id="ba3382c881"><path d="M 114 20 L 135 20 L 135 53.25 L 114 53.25 Z M 114 20 " clip-rule="nonzero"/></clipPath></defs><g clip-path="url(#4dbb856cfc)"><path fill="#4293ff" d="M 75.214844 38.40625 L 79.378906 38.40625 L 79.378906 44.492188 C 78.773438 44.792969 77.585938 45.035156 75.855469 45.035156 C 71.082031 45.035156 67.949219 41.976562 67.949219 36.800781 C 67.949219 31.683594 71.203125 28.59375 76.1875 28.59375 C 78.257812 28.59375 79.625 28.988281 80.71875 29.472656 L 81.355469 27.320312 C 80.476562 26.898438 78.621094 26.382812 76.25 26.382812 C 69.378906 26.382812 65.183594 30.835938 65.152344 36.921875 C 65.152344 40.101562 66.246094 42.824219 68.007812 44.519531 C 70.015625 46.429688 72.570312 47.214844 75.671875 47.214844 C 78.4375 47.214844 80.78125 46.519531 81.964844 46.09375 L 81.964844 36.285156 L 75.214844 36.285156 L 75.214844 38.40625 " fill-opacity="1" fill-rule="nonzero"/></g><path fill="#4293ff" d="M 88.652344 37.4375 L 96.617188 37.4375 L 96.617188 35.253906 L 88.652344 35.253906 L 88.652344 28.804688 L 97.074219 28.804688 L 97.074219 26.59375 L 86.007812 26.59375 L 86.007812 47.003906 L 97.53125 47.003906 L 97.53125 44.792969 L 88.652344 44.792969 L 88.652344 37.4375 " fill-opacity="1" fill-rule="nonzero"/><path fill="#4293ff" d="M 113.855469 35.132812 C 113.855469 38.3125 113.914062 40.796875 114.160156 43.523438 L 114.097656 43.550781 C 113.125 41.460938 111.9375 39.3125 110.417969 36.921875 L 103.851562 26.59375 L 100.964844 26.59375 L 100.964844 47.003906 L 103.457031 47.003906 L 103.457031 38.285156 C 103.457031 34.890625 103.394531 32.4375 103.242188 29.863281 L 103.335938 29.835938 C 104.367188 32.046875 105.738281 34.378906 107.167969 36.648438 L 113.671875 47.003906 L 116.347656 47.003906 L 116.347656 26.59375 L 113.855469 26.59375 L 113.855469 35.132812 " fill-opacity="1" fill-rule="nonzero"/><g clip-path="url(#f04b67f92d)"><path fill="#4293ff" d="M 134.945312 44.792969 L 134.945312 37.4375 L 142.910156 37.4375 L 142.910156 35.253906 L 134.945312 35.253906 L 134.945312 28.804688 L 143.367188 28.804688 L 143.367188 26.59375 L 132.300781 26.59375 L 132.300781 47.003906 L 143.820312 47.003906 L 143.820312 44.792969 L 134.945312 44.792969 " fill-opacity="1" fill-rule="nonzero"/></g><g clip-path="url(#ba3382c881)"><path fill="#d0ff81" d="M 130.238281 50.792969 C 128.0625 52.699219 125.734375 51.199219 124.503906 49.128906 C 122.675781 46.050781 123.464844 42.128906 124.445312 38.882812 C 125.632812 34.949219 128.210938 28.335938 134.238281 20.578125 C 133.015625 21.445312 128.9375 24.101562 123.238281 23.765625 C 118.886719 23.511719 115.792969 21.636719 114.46875 20.714844 C 116.90625 23.644531 118.898438 27.054688 119.632812 30.824219 C 120.820312 36.90625 117.578125 50.945312 126.425781 52.90625 C 127.96875 53.25 129.722656 52.828125 130.765625 51.644531 C 131.777344 50.496094 131.988281 48.738281 131.367188 47.339844 C 131.648438 48.578125 131.199219 49.953125 130.238281 50.792969 " fill-opacity="1" fill-rule="nonzero"/></g><path fill="#d0ff81" d="M 124.351562 12.527344 C 127.5625 12.527344 130.191406 15.320312 130.429688 18.867188 C 131.445312 16.996094 131.613281 14.605469 130.429688 12.203125 C 129.867188 11.058594 128.941406 10.128906 127.796875 9.566406 C 127.546875 9.441406 127.296875 9.332031 127.046875 9.238281 C 127.078125 9.074219 127.09375 8.902344 127.09375 8.730469 C 127.09375 7.222656 125.867188 6 124.351562 6 C 122.839844 6 121.613281 7.222656 121.613281 8.730469 C 121.613281 8.914062 121.632812 9.097656 121.667969 9.269531 C 119.191406 10.3125 117.449219 12.757812 117.449219 15.605469 C 117.449219 16.785156 117.75 17.894531 118.277344 18.867188 C 118.515625 15.320312 121.144531 12.527344 124.351562 12.527344 " fill-opacity="1" fill-rule="nonzero"/><g fill="#ffffff" fill-opacity="1"><g transform="translate(8.964843, 46.601541)"><g><path d="M 11.1875 -10.375 L 17.984375 -10.375 L 17.984375 -0.75 C 16.921875 -0.394531 15.847656 -0.132812 14.765625 0.03125 C 13.679688 0.195312 12.453125 0.28125 11.078125 0.28125 C 9.046875 0.28125 7.332031 -0.125 5.9375 -0.9375 C 4.539062 -1.757812 3.476562 -2.925781 2.75 -4.4375 C 2.03125 -5.945312 1.671875 -7.738281 1.671875 -9.8125 C 1.671875 -11.851562 2.066406 -13.628906 2.859375 -15.140625 C 3.660156 -16.648438 4.820312 -17.820312 6.34375 -18.65625 C 7.875 -19.488281 9.710938 -19.90625 11.859375 -19.90625 C 12.953125 -19.90625 13.988281 -19.804688 14.96875 -19.609375 C 15.945312 -19.410156 16.859375 -19.125 17.703125 -18.75 L 16.78125 -16.609375 C 16.082031 -16.898438 15.296875 -17.160156 14.421875 -17.390625 C 13.554688 -17.617188 12.65625 -17.734375 11.71875 -17.734375 C 9.363281 -17.734375 7.53125 -17.019531 6.21875 -15.59375 C 4.914062 -14.175781 4.265625 -12.25 4.265625 -9.8125 C 4.265625 -8.257812 4.515625 -6.878906 5.015625 -5.671875 C 5.523438 -4.472656 6.316406 -3.539062 7.390625 -2.875 C 8.472656 -2.207031 9.894531 -1.875 11.65625 -1.875 C 12.519531 -1.875 13.253906 -1.914062 13.859375 -2 C 14.460938 -2.09375 15.015625 -2.207031 15.515625 -2.34375 L 15.515625 -8.171875 L 11.1875 -8.171875 Z M 11.1875 -10.375 "/></g></g></g><g fill="#ffffff" fill-opacity="1"><g transform="translate(28.979094, 46.601541)"><g><path d="M 13.640625 0 L 2.671875 0 L 2.671875 -19.640625 L 13.640625 -19.640625 L 13.640625 -17.46875 L 5.140625 -17.46875 L 5.140625 -11.328125 L 13.140625 -11.328125 L 13.140625 -9.1875 L 5.140625 -9.1875 L 5.140625 -2.171875 L 13.640625 -2.171875 Z M 13.640625 0 "/></g></g></g><g fill="#ffffff" fill-opacity="1"><g transform="translate(44.264704, 46.601541)"><g><path d="M 18.234375 0 L 15.34375 0 L 4.84375 -16.3125 L 4.734375 -16.3125 C 4.765625 -15.664062 4.804688 -14.863281 4.859375 -13.90625 C 4.921875 -12.957031 4.953125 -11.976562 4.953125 -10.96875 L 4.953125 0 L 2.671875 0 L 2.671875 -19.640625 L 5.53125 -19.640625 L 16 -3.375 L 16.109375 -3.375 C 16.097656 -3.675781 16.078125 -4.117188 16.046875 -4.703125 C 16.015625 -5.285156 15.984375 -5.921875 15.953125 -6.609375 C 15.929688 -7.296875 15.921875 -7.941406 15.921875 -8.546875 L 15.921875 -19.640625 L 18.234375 -19.640625 Z M 18.234375 0 "/></g></g></g></svg>